<?xml version="1.0" encoding="UTF-8" standalone="no"?>
<!DOCTYPE svg PUBLIC "-//W3C//DTD SVG 1.1//EN" "http://www.w3.org/Graphics/SVG/1.1/DTD/svg11.dtd">
<svg width="100%" height="100%" viewBox="0 0 64 64" version="1.1" xmlns="http://www.w3.org/2000/svg" xmlns:xlink="http://www.w3.org/1999/xlink" xml:space="preserve" xmlns:serif="http://www.serif.com/" style="fill-rule:evenodd;clip-rule:evenodd;stroke-linejoin:round;stroke-miterlimit:2;">
    <g transform="matrix(0.997261,0,0,0.996707,0.164893,9.49023e-06)">
        <rect x="-0.165" y="0.003" width="64.176" height="64.211" style="fill:rgb(8,23,39);"/>
    </g>
    <g transform="matrix(1.51148,0,0,1.51148,-12.6137,-18.287)">
        <g transform="matrix(1,0,0,1,16.058,18.4805)">
            <path d="M25.404,6.506L14.715,0.335C13.94,-0.11 12.991,-0.11 12.216,0.335L1.532,6.506C0.757,6.951 0.283,7.776 0.283,8.67L0.283,21.008C0.283,21.903 0.757,22.727 1.532,23.172L12.216,29.344C12.991,29.789 13.94,29.789 14.715,29.344L25.399,23.172C26.173,22.727 26.648,21.903 26.648,21.008L26.648,8.67C26.648,7.776 26.173,6.951 25.399,6.506L25.404,6.506ZM23.655,20.719L13.47,26.6L3.286,20.719L3.286,8.955L13.465,3.073L23.65,8.955L23.65,20.719L23.655,20.719Z" style="fill:rgb(254,198,0);fill-rule:nonzero;"/>
        </g>
        <g transform="matrix(1,0,0,1,16.058,18.4805)">
            <path d="M7.294,10.404C6.829,10.674 6.544,11.169 6.544,11.704L6.544,17.97C6.544,18.505 6.829,19 7.294,19.269L12.721,22.403C13.186,22.672 13.755,22.672 14.22,22.403L19.647,19.269C20.112,19 20.397,18.505 20.397,17.97L20.397,11.704C20.397,11.169 20.112,10.674 19.647,10.404L14.22,7.271C13.755,7.001 13.186,7.001 12.721,7.271L7.294,10.404Z" style="fill:rgb(254,198,0);fill-rule:nonzero;"/>
        </g>
    </g>
</svg>
